# xmcd
# 
# Track frame offsets:
#     150
#     23019
#     45964
#     68686
# 
# Disc length: 1219
# 
# Revision: 5
# Processed by: cddbd v1.5.2PL0 Copyright (c) Steve Scherf et al.
# Submitted via: BonkEnc v1.0.8
# 
DISCID=2304c104
DTITLE=NIVEA  - Deep Relax Musik zum Entspannen
DYEAR=2008
DGENRE=Down Beat
TTITLE0=Pearled
TTITLE1=Sensual Soul
TTITLE2=Welfare
TTITLE3=Spa Coast
EXTD=2008
EXTT0=
EXTT1=
EXTT2=
EXTT3=
PLAYORDER=
